<?xml version="1.0" encoding="utf-8" ?><svg xmlns="http://www.w3.org/2000/svg" xmlns:xlink="http://www.w3.org/1999/xlink" width="1344" height="768" viewBox="0 0 1344 768"><path fill="white" d="M0 0L1344 0L1344 768L0 768L0 0Z"></path><defs><linearGradient id="gradient_0" gradientUnits="userSpaceOnUse" x1="1022.5868" y1="425.66296" x2="1018.9615" y2="244.89174"><stop offset="0" stop-color="#50A8A8"></stop><stop offset="1" stop-color="#3EA7C5"></stop></linearGradient></defs><path fill="url(#gradient_0)" d="M1118.46 245.819L1120.01 245.941C1121.63 248.5 1120.86 280.704 1120.84 286.125L974.821 286.19C975.196 297.185 975.13 308.735 975.223 319.776C1014.95 320.885 1059.77 319.963 1099.79 319.85L1099.81 359.054L979.99 359.061C977.976 358.987 977.352 358.848 975.437 359.498C974.39 362.212 975.06 421.582 975.062 428.444C957.531 428.755 939.1 428.452 921.504 428.403L921.42 246.051C986.637 245.102 1053.07 246.392 1118.46 245.819Z"></path><defs><linearGradient id="gradient_1" gradientUnits="userSpaceOnUse" x1="764.46631" y1="431.87982" x2="759.0741" y2="242.35204"><stop offset="0" stop-color="#4FA7A3"></stop><stop offset="1" stop-color="#3BA5C7"></stop></linearGradient></defs><path fill="url(#gradient_1)" d="M771.415 241.207C806.032 240.414 845.599 252.432 867.814 280.452C856.085 289.835 844.251 299.088 832.315 308.207C819.315 295.719 809.704 288.607 791.478 284.9C753.387 277.153 705.798 291.874 706.674 338.44C707.385 376.199 742.433 392.675 775.865 391.273C801.782 390.186 817.85 380.582 834.928 361.966L842.116 367.015C852.109 374.552 863.462 381.8 872.935 389.273L871.003 391.399C845.052 419.868 821.667 430.885 782.413 432.928C746.378 434.875 708.576 427.368 681.006 402.757C646.549 371.997 645.062 310.818 676.505 277.429C701.834 250.532 735.762 242.605 771.415 241.207Z"></path><path fill="#44A5B1" d="M556.115 317.278C584.265 313.181 611.848 325.375 633.503 342.454C625.975 353.382 618.35 364.242 610.63 375.035C560.818 338.248 537.731 373.81 488.756 389.917C473.944 394.788 462.025 395.837 446.637 395.921C410.586 395.885 381.797 380.818 366.458 347.55C376.143 352.613 382.853 356.337 393.499 359.393C427.307 369.097 466.949 354.736 497.332 339.801C519.995 328.661 530.126 320.707 556.115 317.278Z"></path><path fill="#44A5B1" d="M511.13 245.186C513.372 245.046 514.134 245.046 516.399 245.263C520.41 249.276 543.433 297.167 547.538 305.56C527.903 310.092 520.646 313.692 503.019 322.62C497.769 312.226 493.416 301.439 487.903 290.973C480.652 306.829 472.289 324.728 464.245 340.193C452.061 347.724 421.391 349.828 406.733 348.773L459.978 245.286C476.7 245.549 494.34 245.232 511.13 245.186Z"></path><path fill="#44A5B1" d="M563.734 372.379C572.983 371.26 579.509 372.374 588.357 374.613C591.834 379.212 597.079 389.533 600.025 395.006L617.989 428.167C610.389 428.431 601.098 428.162 593.365 428.119L561.72 428.305C554.264 415.768 544.382 394.718 537.947 381.429C547.137 376.983 553.703 374.037 563.734 372.379Z"></path><path fill="#44A5B1" d="M389.469 392.157C404.592 402.367 417.869 406.656 435.798 408.539L427.136 428.448L417.008 428.304C401.685 428.118 386.36 428.166 371.039 428.448C377.117 416.318 383.26 404.22 389.469 392.157Z"></path></svg>